<?xml version="1.0" standalone="no"?>
<!DOCTYPE svg PUBLIC "-//W3C//DTD SVG 20010904//EN"
 "http://www.w3.org/TR/2001/REC-SVG-20010904/DTD/svg10.dtd">
<svg version="1.0" xmlns="http://www.w3.org/2000/svg"
 width="576.000000pt" height="479.000000pt" viewBox="0 0 576.000000 479.000000"
 preserveAspectRatio="xMidYMid meet">

<g transform="translate(0.000000,479.000000) scale(0.100000,-0.100000)"
fill="#fff" stroke="none">
<path d="M1245 4693 c-351 -31 -632 -174 -706 -358 -22 -54 -24 -74 -24 -215
1 -139 4 -168 32 -280 45 -181 49 -213 28 -265 -22 -59 -71 -100 -206 -171
-195 -103 -277 -202 -267 -321 6 -69 45 -111 137 -149 203 -83 231 -106 231
-190 0 -86 -17 -142 -54 -175 -41 -35 -54 -84 -39 -140 8 -30 6 -41 -10 -63
-10 -14 -21 -44 -24 -66 -5 -32 0 -48 26 -88 17 -27 31 -55 31 -63 0 -27 60
-140 105 -199 141 -183 364 -281 770 -339 77 -11 174 -21 215 -23 l75 -3 3
106 3 106 -118 6 c-389 21 -743 160 -855 336 -15 25 -28 48 -28 52 0 4 25 19
55 34 58 28 80 54 70 84 -3 11 -43 50 -90 87 l-83 69 5 75 c13 203 83 285 164
193 53 -62 89 -62 89 0 0 106 -149 243 -327 301 -103 34 -97 74 14 92 144 24
230 85 263 186 21 66 45 73 96 28 44 -38 73 -50 124 -50 57 0 85 14 146 72 62
58 88 96 102 150 17 61 -3 76 -134 103 -135 28 -190 53 -247 114 -63 67 -89
141 -95 272 -4 106 -4 107 29 169 45 85 122 151 244 210 146 71 283 99 473
100 l103 0 -3 108 -3 107 -140 1 c-77 0 -158 -1 -180 -3z"/>
<path d="M4200 4590 l0 -110 98 0 c330 0 613 -123 717 -312 27 -48 30 -62 30
-143 -1 -173 -66 -305 -178 -359 -29 -15 -104 -37 -165 -50 -61 -12 -118 -28
-126 -36 -51 -41 31 -190 143 -262 34 -21 57 -28 94 -28 55 0 79 10 123 52 46
44 74 36 96 -27 23 -66 45 -93 101 -132 44 -29 65 -36 225 -69 19 -4 23 -10
20 -32 -3 -24 -12 -30 -82 -54 -44 -15 -104 -42 -134 -60 -129 -78 -225 -244
-161 -278 18 -10 26 -6 63 34 60 66 102 62 141 -14 17 -32 35 -136 35 -200 0
-44 -2 -47 -83 -115 -112 -96 -113 -125 -7 -175 48 -22 49 -23 35 -49 -7 -14
-27 -44 -45 -66 -124 -156 -466 -281 -826 -302 l-112 -6 -6 -38 c-3 -21 -3
-71 0 -110 l7 -71 76 7 c298 26 573 89 731 167 90 44 117 64 190 137 84 85
133 159 160 246 7 22 26 55 41 73 35 40 39 100 10 148 -15 25 -18 43 -14 98
l6 67 -49 46 -48 47 -4 96 -4 96 31 32 c21 20 69 45 143 74 127 48 170 82 188
146 9 35 8 53 -4 95 -29 99 -94 161 -271 257 -220 118 -235 153 -175 404 98
415 48 599 -205 745 -155 89 -403 141 -680 141 l-125 0 0 -110z"/>
<path d="M3484 4648 c-39 -75 -1436 -2985 -1441 -3000 -5 -17 6 -18 125 -18
92 0 132 4 140 13 5 6 332 685 727 1507 395 822 722 1503 727 1513 8 16 -1 17
-126 17 l-135 0 -17 -32z"/>
<path d="M885 1089 c-132 -20 -269 -118 -333 -237 -45 -84 -62 -161 -62 -277
0 -161 35 -260 126 -355 88 -92 207 -140 350 -140 87 0 149 18 224 64 32 20
63 36 69 36 5 0 15 -18 21 -40 6 -24 17 -40 25 -40 13 0 15 28 15 175 0 165
-1 175 -19 175 -15 0 -20 -10 -26 -56 -12 -100 -33 -152 -78 -196 -58 -56
-108 -78 -185 -78 -103 0 -167 45 -218 155 -44 93 -57 182 -52 348 4 131 8
162 31 226 52 147 114 201 233 201 84 0 133 -21 191 -80 44 -43 65 -93 78
-184 6 -36 11 -46 26 -46 18 0 19 10 19 170 0 142 -2 170 -15 170 -8 0 -17
-14 -21 -35 -10 -55 -22 -57 -94 -14 -96 59 -188 76 -305 58z"/>
<path d="M2185 1093 c-108 -16 -198 -56 -266 -120 -102 -96 -148 -202 -156
-363 -8 -168 30 -291 123 -390 176 -189 532 -186 713 5 91 97 134 216 134 375
0 236 -115 409 -311 470 -60 19 -185 31 -237 23z m108 -35 c85 -26 161 -138
192 -284 32 -150 13 -389 -39 -508 -65 -146 -184 -196 -292 -123 -112 74 -174
270 -160 502 14 224 83 371 192 410 49 18 57 18 107 3z"/>
<path d="M3140 1061 c0 -17 6 -21 33 -21 69 0 67 10 67 -449 0 -264 -4 -419
-10 -432 -7 -11 -26 -21 -50 -25 -24 -4 -40 -12 -40 -20 0 -21 477 -20 575 1
193 41 330 168 375 350 19 77 15 229 -8 302 -49 158 -138 239 -317 289 -47 13
-120 18 -342 21 -283 5 -283 5 -283 -16z m554 -36 c130 -54 185 -207 173 -483
-8 -196 -38 -287 -117 -354 -48 -42 -98 -58 -179 -58 -108 0 -101 -30 -101
458 0 386 1 420 18 434 9 9 24 18 32 21 24 10 135 -2 174 -18z"/>
<path d="M4515 1070 c-10 -17 5 -30 34 -30 62 0 61 5 61 -449 0 -264 -4 -419
-10 -432 -7 -11 -26 -21 -50 -25 -24 -4 -40 -12 -40 -20 0 -12 66 -14 386 -14
l387 0 -7 31 c-3 17 -6 92 -6 165 0 112 -2 134 -15 134 -8 0 -17 -12 -21 -27
-17 -77 -28 -111 -46 -148 -46 -92 -97 -119 -224 -120 -63 0 -96 4 -107 14
-15 12 -17 40 -17 217 l0 204 50 0 c43 0 56 -5 86 -33 22 -20 42 -52 54 -87
10 -30 25 -56 33 -58 12 -3 14 26 11 195 -4 165 -7 199 -19 201 -8 2 -15 -2
-15 -10 0 -7 -13 -41 -29 -75 -33 -70 -66 -93 -131 -93 l-40 0 0 199 c0 168 2
202 16 215 18 19 147 22 203 6 71 -20 127 -104 146 -217 4 -27 12 -43 21 -43
11 0 14 18 14 78 0 44 3 113 6 155 l7 77 -366 0 c-233 0 -368 -4 -372 -10z"/>
</g>
</svg>
